<svg width="616" height="266" viewBox="0 0 616 266" fill="none" xmlns="http://www.w3.org/2000/svg">
<g filter="url(#filter0_d)">
<rect width="415" height="122" fill="#CEFF1A"/>
<rect x="2.5" y="2.5" width="410" height="117" stroke="black" stroke-width="5"/>
</g>
<g filter="url(#filter1_d)">
<rect x="207" y="143" width="398" height="112" fill="#EA148D"/>
</g>
<rect x="3.5" y="155.5" width="185" height="89" fill="white" stroke="#264653" stroke-width="5"/>
<path d="M60.3594 76.8594C60.3594 74.4531 59.5 72.5781 57.7812 71.2344C56.0938 69.8906 53.1094 68.5 48.8281 67.0625C44.5469 65.625 41.0469 64.2344 38.3281 62.8906C29.4844 58.5469 25.0625 52.5781 25.0625 44.9844C25.0625 41.2031 26.1562 37.875 28.3438 35C30.5625 32.0938 33.6875 29.8438 37.7188 28.25C41.75 26.625 46.2812 25.8125 51.3125 25.8125C56.2188 25.8125 60.6094 26.6875 64.4844 28.4375C68.3906 30.1875 71.4219 32.6875 73.5781 35.9375C75.7344 39.1562 76.8125 42.8438 76.8125 47H60.4062C60.4062 44.2188 59.5469 42.0625 57.8281 40.5312C56.1406 39 53.8438 38.2344 50.9375 38.2344C48 38.2344 45.6719 38.8906 43.9531 40.2031C42.2656 41.4844 41.4219 43.125 41.4219 45.125C41.4219 46.875 42.3594 48.4688 44.2344 49.9062C46.1094 51.3125 49.4062 52.7812 54.125 54.3125C58.8438 55.8125 62.7188 57.4375 65.75 59.1875C73.125 63.4375 76.8125 69.2969 76.8125 76.7656C76.8125 82.7344 74.5625 87.4219 70.0625 90.8281C65.5625 94.2344 59.3906 95.9375 51.5469 95.9375C46.0156 95.9375 41 94.9531 36.5 92.9844C32.0312 90.9844 28.6562 88.2656 26.375 84.8281C24.125 81.3594 23 77.375 23 72.875H39.5C39.5 76.5312 40.4375 79.2344 42.3125 80.9844C44.2188 82.7031 47.2969 83.5625 51.5469 83.5625C54.2656 83.5625 56.4062 82.9844 57.9688 81.8281C59.5625 80.6406 60.3594 78.9844 60.3594 76.8594ZM110.609 70.9062H101.703V95H85.25V26.75H112.109C120.203 26.75 126.531 28.5469 131.094 32.1406C135.656 35.7344 137.938 40.8125 137.938 47.375C137.938 52.125 136.969 56.0625 135.031 59.1875C133.125 62.3125 130.125 64.8438 126.031 66.7812L140.281 94.2969V95H122.656L110.609 70.9062ZM101.703 58.2031H112.109C115.234 58.2031 117.578 57.3906 119.141 55.7656C120.734 54.1094 121.531 51.8125 121.531 48.875C121.531 45.9375 120.734 43.6406 119.141 41.9844C117.547 40.2969 115.203 39.4531 112.109 39.4531H101.703V58.2031ZM165.406 95H149V26.75H165.406V95ZM212.047 76.8594C212.047 74.4531 211.188 72.5781 209.469 71.2344C207.781 69.8906 204.797 68.5 200.516 67.0625C196.234 65.625 192.734 64.2344 190.016 62.8906C181.172 58.5469 176.75 52.5781 176.75 44.9844C176.75 41.2031 177.844 37.875 180.031 35C182.25 32.0938 185.375 29.8438 189.406 28.25C193.438 26.625 197.969 25.8125 203 25.8125C207.906 25.8125 212.297 26.6875 216.172 28.4375C220.078 30.1875 223.109 32.6875 225.266 35.9375C227.422 39.1562 228.5 42.8438 228.5 47H212.094C212.094 44.2188 211.234 42.0625 209.516 40.5312C207.828 39 205.531 38.2344 202.625 38.2344C199.688 38.2344 197.359 38.8906 195.641 40.2031C193.953 41.4844 193.109 43.125 193.109 45.125C193.109 46.875 194.047 48.4688 195.922 49.9062C197.797 51.3125 201.094 52.7812 205.812 54.3125C210.531 55.8125 214.406 57.4375 217.438 59.1875C224.812 63.4375 228.5 69.2969 228.5 76.7656C228.5 82.7344 226.25 87.4219 221.75 90.8281C217.25 94.2344 211.078 95.9375 203.234 95.9375C197.703 95.9375 192.688 94.9531 188.188 92.9844C183.719 90.9844 180.344 88.2656 178.062 84.8281C175.812 81.3594 174.688 77.375 174.688 72.875H191.188C191.188 76.5312 192.125 79.2344 194 80.9844C195.906 82.7031 198.984 83.5625 203.234 83.5625C205.953 83.5625 208.094 82.9844 209.656 81.8281C211.25 80.6406 212.047 78.9844 212.047 76.8594ZM293.984 95H277.625V66.5H253.391V95H236.938V26.75H253.391V53.8438H277.625V26.75H293.984V95ZM356.609 39.4531H336.125V95H319.672V39.4531H299.562V26.75H356.609V39.4531ZM381.125 95H364.719V26.75H381.125V95Z" fill="black"/>
<path d="M266.512 216.549H244.681L240.53 229H227.291L249.786 168.57H261.324L283.943 229H270.704L266.512 216.549ZM248.042 206.463H263.15L255.555 183.844L248.042 206.463ZM311.958 206.878H302.039V229H289.588V168.57H312.042C319.18 168.57 324.686 170.161 328.56 173.343C332.434 176.525 334.371 181.021 334.371 186.832C334.371 190.955 333.471 194.4 331.673 197.167C329.902 199.906 327.204 202.092 323.58 203.724L336.653 228.419V229H323.289L311.958 206.878ZM302.039 196.793H312.083C315.21 196.793 317.631 196.004 319.346 194.427C321.062 192.822 321.919 190.623 321.919 187.828C321.919 184.978 321.103 182.737 319.471 181.104C317.866 179.472 315.389 178.656 312.042 178.656H302.039V196.793ZM391.314 208.871C390.844 215.373 388.436 220.492 384.092 224.227C379.776 227.962 374.076 229.83 366.993 229.83C359.245 229.83 353.144 227.229 348.689 222.027C344.262 216.798 342.049 209.632 342.049 200.528V196.834C342.049 191.024 343.073 185.905 345.12 181.478C347.168 177.051 350.087 173.661 353.877 171.31C357.696 168.93 362.123 167.74 367.159 167.74C374.131 167.74 379.748 169.608 384.009 173.343C388.27 177.079 390.733 182.322 391.397 189.073H378.946C378.641 185.172 377.549 182.35 375.667 180.606C373.813 178.836 370.977 177.95 367.159 177.95C363.008 177.95 359.896 179.444 357.82 182.433C355.773 185.393 354.721 190 354.666 196.253V200.819C354.666 207.349 355.648 212.122 357.613 215.138C359.605 218.154 362.732 219.662 366.993 219.662C370.839 219.662 373.702 218.79 375.584 217.047C377.493 215.276 378.586 212.551 378.863 208.871H391.314ZM448.672 229H436.221V203.102H411.941V229H399.49V168.57H411.941V193.058H436.221V168.57H448.672V229ZM472.828 229H460.376V168.57H472.828V229ZM506.736 214.017L520.433 168.57H534.295L513.252 229H500.262L479.302 168.57H493.123L506.736 214.017ZM576.38 202.811H552.474V218.998H580.53V229H540.022V168.57H580.447V178.656H552.474V193.058H576.38V202.811Z" fill="#FFDE00"/>
<path d="M26.5078 177.949H22.9121L22.2285 180H20.0479L23.7529 170.047H25.6533L29.3789 180H27.1982L26.5078 177.949ZM23.4658 176.288H25.9541L24.7031 172.562L23.4658 176.288ZM36.7412 178.544C37.1058 178.544 37.402 178.444 37.6299 178.243C37.8577 178.043 37.9762 177.776 37.9854 177.443H39.8379C39.8333 177.945 39.6966 178.405 39.4277 178.824C39.1589 179.239 38.7897 179.562 38.3203 179.795C37.8555 180.023 37.3405 180.137 36.7754 180.137C35.7181 180.137 34.8841 179.802 34.2734 179.132C33.6628 178.457 33.3574 177.528 33.3574 176.343V176.213C33.3574 175.074 33.6605 174.164 34.2666 173.485C34.8727 172.806 35.7044 172.467 36.7617 172.467C37.6868 172.467 38.4274 172.731 38.9834 173.26C39.5439 173.784 39.8288 174.483 39.8379 175.358H37.9854C37.9762 174.976 37.8577 174.666 37.6299 174.429C37.402 174.187 37.1012 174.066 36.7275 174.066C36.2673 174.066 35.9186 174.235 35.6816 174.572C35.4492 174.905 35.333 175.447 35.333 176.199V176.404C35.333 177.165 35.4492 177.712 35.6816 178.045C35.9141 178.378 36.2673 178.544 36.7412 178.544ZM45.1221 174.456C44.8532 174.42 44.6162 174.401 44.4111 174.401C43.6637 174.401 43.1738 174.654 42.9414 175.16V180H40.9658V172.604H42.832L42.8867 173.485C43.2832 172.806 43.8324 172.467 44.5342 172.467C44.7529 172.467 44.958 172.496 45.1494 172.556L45.1221 174.456ZM45.5254 176.233C45.5254 175.5 45.6667 174.846 45.9492 174.271C46.2318 173.697 46.6374 173.253 47.166 172.938C47.6992 172.624 48.3167 172.467 49.0186 172.467C50.0166 172.467 50.8301 172.772 51.459 173.383C52.0924 173.993 52.4456 174.823 52.5186 175.871L52.5322 176.377C52.5322 177.512 52.2155 178.423 51.582 179.111C50.9486 179.795 50.0986 180.137 49.0322 180.137C47.9658 180.137 47.1136 179.795 46.4756 179.111C45.8421 178.428 45.5254 177.498 45.5254 176.322V176.233ZM47.501 176.377C47.501 177.079 47.6331 177.617 47.8975 177.99C48.1618 178.359 48.54 178.544 49.0322 178.544C49.5107 178.544 49.8844 178.362 50.1533 177.997C50.4222 177.628 50.5566 177.04 50.5566 176.233C50.5566 175.545 50.4222 175.012 50.1533 174.634C49.8844 174.256 49.5062 174.066 49.0186 174.066C48.5355 174.066 48.1618 174.256 47.8975 174.634C47.6331 175.007 47.501 175.589 47.501 176.377ZM60.1816 177.313L61.1523 172.604H63.0596L61.1729 180H59.5186L58.1172 175.345L56.7158 180H55.0684L53.1816 172.604H55.0889L56.0527 177.307L57.4062 172.604H58.835L60.1816 177.313ZM63.7363 176.247C63.7363 175.094 63.9938 174.176 64.5088 173.492C65.0283 172.809 65.737 172.467 66.6348 172.467C67.3548 172.467 67.9495 172.736 68.4189 173.273V169.5H70.4014V180H68.6172L68.5215 179.214C68.0293 179.829 67.3958 180.137 66.6211 180.137C65.7507 180.137 65.0511 179.795 64.5225 179.111C63.9984 178.423 63.7363 177.468 63.7363 176.247ZM65.7119 176.391C65.7119 177.083 65.8327 177.614 66.0742 177.983C66.3158 178.353 66.6667 178.537 67.127 178.537C67.7376 178.537 68.1683 178.28 68.4189 177.765V174.846C68.1729 174.331 67.7467 174.073 67.1406 174.073C66.1882 174.073 65.7119 174.846 65.7119 176.391ZM75.9385 177.956C75.9385 177.715 75.8177 177.525 75.5762 177.389C75.3392 177.247 74.9564 177.122 74.4277 177.013C72.6686 176.644 71.7891 175.896 71.7891 174.771C71.7891 174.114 72.0602 173.567 72.6025 173.13C73.1494 172.688 73.8626 172.467 74.7422 172.467C75.681 172.467 76.4307 172.688 76.9912 173.13C77.5563 173.572 77.8389 174.146 77.8389 174.853H75.8633C75.8633 174.57 75.7721 174.338 75.5898 174.155C75.4076 173.968 75.1227 173.875 74.7354 173.875C74.4027 173.875 74.1452 173.95 73.9629 174.101C73.7806 174.251 73.6895 174.442 73.6895 174.675C73.6895 174.894 73.792 175.071 73.9971 175.208C74.2067 175.34 74.5576 175.456 75.0498 175.557C75.542 175.652 75.9567 175.762 76.2939 175.885C77.3376 176.268 77.8594 176.931 77.8594 177.874C77.8594 178.549 77.57 179.095 76.9912 179.515C76.4124 179.929 75.665 180.137 74.749 180.137C74.1292 180.137 73.5778 180.027 73.0947 179.809C72.6162 179.585 72.2402 179.282 71.9668 178.899C71.6934 178.512 71.5566 178.095 71.5566 177.648H73.4297C73.4479 177.999 73.5778 178.268 73.8193 178.455C74.0609 178.642 74.3844 178.735 74.79 178.735C75.1683 178.735 75.4531 178.665 75.6445 178.523C75.8405 178.378 75.9385 178.188 75.9385 177.956ZM78.8301 176.233C78.8301 175.5 78.9714 174.846 79.2539 174.271C79.5365 173.697 79.9421 173.253 80.4707 172.938C81.0039 172.624 81.6214 172.467 82.3232 172.467C83.3213 172.467 84.1348 172.772 84.7637 173.383C85.3971 173.993 85.7503 174.823 85.8232 175.871L85.8369 176.377C85.8369 177.512 85.5202 178.423 84.8867 179.111C84.2533 179.795 83.4033 180.137 82.3369 180.137C81.2705 180.137 80.4183 179.795 79.7803 179.111C79.1468 178.428 78.8301 177.498 78.8301 176.322V176.233ZM80.8057 176.377C80.8057 177.079 80.9378 177.617 81.2021 177.99C81.4665 178.359 81.8447 178.544 82.3369 178.544C82.8154 178.544 83.1891 178.362 83.458 177.997C83.7269 177.628 83.8613 177.04 83.8613 176.233C83.8613 175.545 83.7269 175.012 83.458 174.634C83.1891 174.256 82.8109 174.066 82.3232 174.066C81.8402 174.066 81.4665 174.256 81.2021 174.634C80.9378 175.007 80.8057 175.589 80.8057 176.377ZM91.4834 179.248C90.9958 179.84 90.3213 180.137 89.46 180.137C88.667 180.137 88.0609 179.909 87.6416 179.453C87.2269 178.997 87.015 178.33 87.0059 177.45V172.604H88.9814V177.382C88.9814 178.152 89.3324 178.537 90.0342 178.537C90.7041 178.537 91.1644 178.305 91.415 177.84V172.604H93.3975V180H91.5381L91.4834 179.248ZM99.0439 174.456C98.7751 174.42 98.5381 174.401 98.333 174.401C97.5856 174.401 97.0957 174.654 96.8633 175.16V180H94.8877V172.604H96.7539L96.8086 173.485C97.2051 172.806 97.7542 172.467 98.4561 172.467C98.6748 172.467 98.8799 172.496 99.0713 172.556L99.0439 174.456ZM102.94 178.544C103.305 178.544 103.601 178.444 103.829 178.243C104.057 178.043 104.175 177.776 104.185 177.443H106.037C106.033 177.945 105.896 178.405 105.627 178.824C105.358 179.239 104.989 179.562 104.52 179.795C104.055 180.023 103.54 180.137 102.975 180.137C101.917 180.137 101.083 179.802 100.473 179.132C99.862 178.457 99.5566 177.528 99.5566 176.343V176.213C99.5566 175.074 99.8597 174.164 100.466 173.485C101.072 172.806 101.904 172.467 102.961 172.467C103.886 172.467 104.627 172.731 105.183 173.26C105.743 173.784 106.028 174.483 106.037 175.358H104.185C104.175 174.976 104.057 174.666 103.829 174.429C103.601 174.187 103.3 174.066 102.927 174.066C102.466 174.066 102.118 174.235 101.881 174.572C101.648 174.905 101.532 175.447 101.532 176.199V176.404C101.532 177.165 101.648 177.712 101.881 178.045C102.113 178.378 102.466 178.544 102.94 178.544ZM110.569 180.137C109.485 180.137 108.601 179.804 107.917 179.139C107.238 178.473 106.898 177.587 106.898 176.479V176.288C106.898 175.545 107.042 174.882 107.329 174.299C107.616 173.711 108.022 173.26 108.546 172.945C109.075 172.626 109.676 172.467 110.351 172.467C111.362 172.467 112.158 172.786 112.736 173.424C113.32 174.062 113.611 174.966 113.611 176.138V176.944H108.901C108.965 177.427 109.157 177.815 109.476 178.106C109.799 178.398 110.207 178.544 110.699 178.544C111.46 178.544 112.055 178.268 112.483 177.717L113.454 178.804C113.158 179.223 112.757 179.551 112.251 179.788C111.745 180.021 111.185 180.137 110.569 180.137ZM110.344 174.066C109.952 174.066 109.633 174.199 109.387 174.463C109.145 174.727 108.99 175.105 108.922 175.598H111.67V175.44C111.661 175.003 111.542 174.666 111.314 174.429C111.087 174.187 110.763 174.066 110.344 174.066ZM114.432 176.247C114.432 175.094 114.689 174.176 115.204 173.492C115.724 172.809 116.432 172.467 117.33 172.467C118.05 172.467 118.645 172.736 119.114 173.273V169.5H121.097V180H119.312L119.217 179.214C118.725 179.829 118.091 180.137 117.316 180.137C116.446 180.137 115.746 179.795 115.218 179.111C114.694 178.423 114.432 177.468 114.432 176.247ZM116.407 176.391C116.407 177.083 116.528 177.614 116.77 177.983C117.011 178.353 117.362 178.537 117.822 178.537C118.433 178.537 118.864 178.28 119.114 177.765V174.846C118.868 174.331 118.442 174.073 117.836 174.073C116.883 174.073 116.407 174.846 116.407 176.391ZM123.141 182.495L122.108 181.955L122.354 181.511C122.66 180.955 122.817 180.401 122.826 179.85V178.318H124.494L124.487 179.686C124.483 180.191 124.355 180.702 124.104 181.217C123.854 181.732 123.533 182.158 123.141 182.495ZM24.7646 193.956C24.7646 193.715 24.6439 193.525 24.4023 193.389C24.1654 193.247 23.7826 193.122 23.2539 193.013C21.4948 192.644 20.6152 191.896 20.6152 190.771C20.6152 190.114 20.8864 189.567 21.4287 189.13C21.9756 188.688 22.6888 188.467 23.5684 188.467C24.5072 188.467 25.2568 188.688 25.8174 189.13C26.3825 189.572 26.665 190.146 26.665 190.853H24.6895C24.6895 190.57 24.5983 190.338 24.416 190.155C24.2337 189.968 23.9489 189.875 23.5615 189.875C23.2288 189.875 22.9714 189.95 22.7891 190.101C22.6068 190.251 22.5156 190.442 22.5156 190.675C22.5156 190.894 22.6182 191.071 22.8232 191.208C23.0329 191.34 23.3838 191.456 23.876 191.557C24.3682 191.652 24.7829 191.762 25.1201 191.885C26.1637 192.268 26.6855 192.931 26.6855 193.874C26.6855 194.549 26.3962 195.095 25.8174 195.515C25.2386 195.929 24.4912 196.137 23.5752 196.137C22.9554 196.137 22.404 196.027 21.9209 195.809C21.4424 195.585 21.0664 195.282 20.793 194.899C20.5195 194.512 20.3828 194.095 20.3828 193.648H22.2559C22.2741 193.999 22.404 194.268 22.6455 194.455C22.887 194.642 23.2106 194.735 23.6162 194.735C23.9945 194.735 24.2793 194.665 24.4707 194.523C24.6667 194.378 24.7646 194.188 24.7646 193.956ZM30.3291 186.785V188.604H31.5938V190.053H30.3291V193.744C30.3291 194.018 30.3815 194.214 30.4863 194.332C30.5911 194.451 30.7917 194.51 31.0879 194.51C31.3066 194.51 31.5003 194.494 31.6689 194.462V195.959C31.2816 196.077 30.8828 196.137 30.4727 196.137C29.0872 196.137 28.3809 195.437 28.3535 194.038V190.053H27.2734V188.604H28.3535V186.785H30.3291ZM36.8506 190.456C36.5817 190.42 36.3447 190.401 36.1396 190.401C35.3923 190.401 34.9023 190.654 34.6699 191.16V196H32.6943V188.604H34.5605L34.6152 189.485C35.0117 188.806 35.5609 188.467 36.2627 188.467C36.4814 188.467 36.6865 188.496 36.8779 188.556L36.8506 190.456ZM42.2373 195.248C41.7497 195.84 41.0752 196.137 40.2139 196.137C39.4209 196.137 38.8148 195.909 38.3955 195.453C37.9808 194.997 37.7689 194.33 37.7598 193.45V188.604H39.7354V193.382C39.7354 194.152 40.0863 194.537 40.7881 194.537C41.458 194.537 41.9183 194.305 42.1689 193.84V188.604H44.1514V196H42.292L42.2373 195.248ZM48.7178 194.544C49.0824 194.544 49.3786 194.444 49.6064 194.243C49.8343 194.043 49.9528 193.776 49.9619 193.443H51.8145C51.8099 193.945 51.6732 194.405 51.4043 194.824C51.1354 195.239 50.7663 195.562 50.2969 195.795C49.832 196.023 49.3171 196.137 48.752 196.137C47.6947 196.137 46.8607 195.802 46.25 195.132C45.6393 194.457 45.334 193.528 45.334 192.343V192.213C45.334 191.074 45.637 190.164 46.2432 189.485C46.8493 188.806 47.681 188.467 48.7383 188.467C49.6634 188.467 50.404 188.731 50.96 189.26C51.5205 189.784 51.8053 190.483 51.8145 191.358H49.9619C49.9528 190.976 49.8343 190.666 49.6064 190.429C49.3786 190.187 49.0778 190.066 48.7041 190.066C48.2438 190.066 47.8952 190.235 47.6582 190.572C47.4258 190.905 47.3096 191.447 47.3096 192.199V192.404C47.3096 193.165 47.4258 193.712 47.6582 194.045C47.8906 194.378 48.2438 194.544 48.7178 194.544ZM55.3076 186.785V188.604H56.5723V190.053H55.3076V193.744C55.3076 194.018 55.36 194.214 55.4648 194.332C55.5697 194.451 55.7702 194.51 56.0664 194.51C56.2852 194.51 56.4788 194.494 56.6475 194.462V195.959C56.2601 196.077 55.8613 196.137 55.4512 196.137C54.0658 196.137 53.3594 195.437 53.332 194.038V190.053H52.252V188.604H53.332V186.785H55.3076ZM62.1025 195.248C61.6149 195.84 60.9404 196.137 60.0791 196.137C59.2861 196.137 58.68 195.909 58.2607 195.453C57.846 194.997 57.6341 194.33 57.625 193.45V188.604H59.6006V193.382C59.6006 194.152 59.9515 194.537 60.6533 194.537C61.3232 194.537 61.7835 194.305 62.0342 193.84V188.604H64.0166V196H62.1572L62.1025 195.248ZM69.6631 190.456C69.3942 190.42 69.1572 190.401 68.9521 190.401C68.2048 190.401 67.7148 190.654 67.4824 191.16V196H65.5068V188.604H67.373L67.4277 189.485C67.8242 188.806 68.3734 188.467 69.0752 188.467C69.2939 188.467 69.499 188.496 69.6904 188.556L69.6631 190.456ZM73.8877 196.137C72.8031 196.137 71.9189 195.804 71.2354 195.139C70.5563 194.473 70.2168 193.587 70.2168 192.479V192.288C70.2168 191.545 70.3604 190.882 70.6475 190.299C70.9346 189.711 71.3402 189.26 71.8643 188.945C72.3929 188.626 72.9945 188.467 73.6689 188.467C74.6807 188.467 75.4759 188.786 76.0547 189.424C76.638 190.062 76.9297 190.966 76.9297 192.138V192.944H72.2197C72.2835 193.427 72.4749 193.815 72.7939 194.106C73.1175 194.398 73.5254 194.544 74.0176 194.544C74.7786 194.544 75.3734 194.268 75.8018 193.717L76.7725 194.804C76.4762 195.223 76.0752 195.551 75.5693 195.788C75.0635 196.021 74.5029 196.137 73.8877 196.137ZM73.6621 190.066C73.2702 190.066 72.9512 190.199 72.7051 190.463C72.4635 190.727 72.3086 191.105 72.2402 191.598H74.9883V191.44C74.9792 191.003 74.8607 190.666 74.6328 190.429C74.4049 190.187 74.0814 190.066 73.6621 190.066ZM77.75 192.247C77.75 191.094 78.0075 190.176 78.5225 189.492C79.042 188.809 79.7507 188.467 80.6484 188.467C81.3685 188.467 81.9632 188.736 82.4326 189.273V185.5H84.415V196H82.6309L82.5352 195.214C82.043 195.829 81.4095 196.137 80.6348 196.137C79.7643 196.137 79.0648 195.795 78.5361 195.111C78.012 194.423 77.75 193.468 77.75 192.247ZM79.7256 192.391C79.7256 193.083 79.8464 193.614 80.0879 193.983C80.3294 194.353 80.6803 194.537 81.1406 194.537C81.7513 194.537 82.182 194.28 82.4326 193.765V190.846C82.1865 190.331 81.7604 190.073 81.1543 190.073C80.2018 190.073 79.7256 190.846 79.7256 192.391ZM93.7188 196C93.6276 195.822 93.5615 195.601 93.5205 195.337C93.042 195.87 92.4199 196.137 91.6543 196.137C90.9297 196.137 90.3281 195.927 89.8496 195.508C89.3757 195.089 89.1387 194.56 89.1387 193.922C89.1387 193.138 89.4281 192.536 90.0068 192.117C90.5902 191.698 91.431 191.486 92.5293 191.481H93.4385V191.058C93.4385 190.716 93.3496 190.442 93.1719 190.237C92.9987 190.032 92.723 189.93 92.3447 189.93C92.012 189.93 91.75 190.009 91.5586 190.169C91.3717 190.328 91.2783 190.547 91.2783 190.825H89.3027C89.3027 190.397 89.4349 190 89.6992 189.636C89.9635 189.271 90.3372 188.986 90.8203 188.781C91.3034 188.572 91.8457 188.467 92.4473 188.467C93.3587 188.467 94.0811 188.697 94.6143 189.157C95.152 189.613 95.4209 190.256 95.4209 191.085V194.291C95.4255 194.993 95.5234 195.524 95.7148 195.884V196H93.7188ZM92.085 194.626C92.3766 194.626 92.6455 194.562 92.8916 194.435C93.1377 194.302 93.32 194.127 93.4385 193.908V192.637H92.7002C91.7113 192.637 91.1849 192.979 91.1211 193.662L91.1143 193.778C91.1143 194.024 91.2008 194.227 91.374 194.387C91.5472 194.546 91.7842 194.626 92.085 194.626ZM98.7568 188.604L98.8184 189.458C99.347 188.797 100.056 188.467 100.944 188.467C101.728 188.467 102.312 188.697 102.694 189.157C103.077 189.618 103.273 190.306 103.282 191.222V196H101.307V191.27C101.307 190.85 101.215 190.547 101.033 190.36C100.851 190.169 100.548 190.073 100.124 190.073C99.568 190.073 99.151 190.31 98.873 190.784V196H96.8975V188.604H98.7568ZM104.479 192.247C104.479 191.094 104.736 190.176 105.251 189.492C105.771 188.809 106.479 188.467 107.377 188.467C108.097 188.467 108.692 188.736 109.161 189.273V185.5H111.144V196H109.359L109.264 195.214C108.771 195.829 108.138 196.137 107.363 196.137C106.493 196.137 105.793 195.795 105.265 195.111C104.741 194.423 104.479 193.468 104.479 192.247ZM106.454 192.391C106.454 193.083 106.575 193.614 106.816 193.983C107.058 194.353 107.409 194.537 107.869 194.537C108.48 194.537 108.91 194.28 109.161 193.765V190.846C108.915 190.331 108.489 190.073 107.883 190.073C106.93 190.073 106.454 190.846 106.454 192.391ZM24.7646 209.956C24.7646 209.715 24.6439 209.525 24.4023 209.389C24.1654 209.247 23.7826 209.122 23.2539 209.013C21.4948 208.644 20.6152 207.896 20.6152 206.771C20.6152 206.114 20.8864 205.567 21.4287 205.13C21.9756 204.688 22.6888 204.467 23.5684 204.467C24.5072 204.467 25.2568 204.688 25.8174 205.13C26.3825 205.572 26.665 206.146 26.665 206.853H24.6895C24.6895 206.57 24.5983 206.338 24.416 206.155C24.2337 205.968 23.9489 205.875 23.5615 205.875C23.2288 205.875 22.9714 205.95 22.7891 206.101C22.6068 206.251 22.5156 206.442 22.5156 206.675C22.5156 206.894 22.6182 207.071 22.8232 207.208C23.0329 207.34 23.3838 207.456 23.876 207.557C24.3682 207.652 24.7829 207.762 25.1201 207.885C26.1637 208.268 26.6855 208.931 26.6855 209.874C26.6855 210.549 26.3962 211.095 25.8174 211.515C25.2386 211.929 24.4912 212.137 23.5752 212.137C22.9554 212.137 22.404 212.027 21.9209 211.809C21.4424 211.585 21.0664 211.282 20.793 210.899C20.5195 210.512 20.3828 210.095 20.3828 209.648H22.2559C22.2741 209.999 22.404 210.268 22.6455 210.455C22.887 210.642 23.2106 210.735 23.6162 210.735C23.9945 210.735 24.2793 210.665 24.4707 210.523C24.6667 210.378 24.7646 210.188 24.7646 209.956ZM31.3682 212.137C30.2835 212.137 29.3994 211.804 28.7158 211.139C28.0368 210.473 27.6973 209.587 27.6973 208.479V208.288C27.6973 207.545 27.8408 206.882 28.1279 206.299C28.415 205.711 28.8206 205.26 29.3447 204.945C29.8734 204.626 30.4749 204.467 31.1494 204.467C32.1611 204.467 32.9564 204.786 33.5352 205.424C34.1185 206.062 34.4102 206.966 34.4102 208.138V208.944H29.7002C29.764 209.427 29.9554 209.815 30.2744 210.106C30.598 210.398 31.0059 210.544 31.498 210.544C32.2591 210.544 32.8538 210.268 33.2822 209.717L34.2529 210.804C33.9567 211.223 33.5557 211.551 33.0498 211.788C32.5439 212.021 31.9834 212.137 31.3682 212.137ZM31.1426 206.066C30.7507 206.066 30.4316 206.199 30.1855 206.463C29.944 206.727 29.7891 207.105 29.7207 207.598H32.4688V207.44C32.4596 207.003 32.3411 206.666 32.1133 206.429C31.8854 206.187 31.5618 206.066 31.1426 206.066ZM39.8242 212C39.7331 211.822 39.667 211.601 39.626 211.337C39.1475 211.87 38.5254 212.137 37.7598 212.137C37.0352 212.137 36.4336 211.927 35.9551 211.508C35.4811 211.089 35.2441 210.56 35.2441 209.922C35.2441 209.138 35.5335 208.536 36.1123 208.117C36.6956 207.698 37.5365 207.486 38.6348 207.481H39.5439V207.058C39.5439 206.716 39.4551 206.442 39.2773 206.237C39.1042 206.032 38.8285 205.93 38.4502 205.93C38.1175 205.93 37.8555 206.009 37.6641 206.169C37.4772 206.328 37.3838 206.547 37.3838 206.825H35.4082C35.4082 206.397 35.5404 206 35.8047 205.636C36.069 205.271 36.4427 204.986 36.9258 204.781C37.4089 204.572 37.9512 204.467 38.5527 204.467C39.4642 204.467 40.1865 204.697 40.7197 205.157C41.2575 205.613 41.5264 206.256 41.5264 207.085V210.291C41.5309 210.993 41.6289 211.524 41.8203 211.884V212H39.8242ZM38.1904 210.626C38.4821 210.626 38.751 210.562 38.9971 210.435C39.2432 210.302 39.4255 210.127 39.5439 209.908V208.637H38.8057C37.8167 208.637 37.2904 208.979 37.2266 209.662L37.2197 209.778C37.2197 210.024 37.3063 210.227 37.4795 210.387C37.6527 210.546 37.8896 210.626 38.1904 210.626ZM47.2002 206.456C46.9313 206.42 46.6943 206.401 46.4893 206.401C45.7419 206.401 45.252 206.654 45.0195 207.16V212H43.0439V204.604H44.9102L44.9648 205.485C45.3613 204.806 45.9105 204.467 46.6123 204.467C46.8311 204.467 47.0361 204.496 47.2275 204.556L47.2002 206.456ZM51.0967 210.544C51.4613 210.544 51.7575 210.444 51.9854 210.243C52.2132 210.043 52.3317 209.776 52.3408 209.443H54.1934C54.1888 209.945 54.0521 210.405 53.7832 210.824C53.5143 211.239 53.1452 211.562 52.6758 211.795C52.2109 212.023 51.696 212.137 51.1309 212.137C50.0736 212.137 49.2396 211.802 48.6289 211.132C48.0182 210.457 47.7129 209.528 47.7129 208.343V208.213C47.7129 207.074 48.016 206.164 48.6221 205.485C49.2282 204.806 50.0599 204.467 51.1172 204.467C52.0423 204.467 52.7829 204.731 53.3389 205.26C53.8994 205.784 54.1842 206.483 54.1934 207.358H52.3408C52.3317 206.976 52.2132 206.666 51.9854 206.429C51.7575 206.187 51.4567 206.066 51.083 206.066C50.6227 206.066 50.2741 206.235 50.0371 206.572C49.8047 206.905 49.6885 207.447 49.6885 208.199V208.404C49.6885 209.165 49.8047 209.712 50.0371 210.045C50.2695 210.378 50.6227 210.544 51.0967 210.544ZM57.249 205.41C57.7731 204.781 58.4316 204.467 59.2246 204.467C60.8288 204.467 61.6423 205.399 61.665 207.263V212H59.6895V207.317C59.6895 206.894 59.5983 206.581 59.416 206.381C59.2337 206.176 58.9307 206.073 58.5068 206.073C57.9281 206.073 57.5088 206.297 57.249 206.743V212H55.2734V201.5H57.249V205.41ZM67.4414 212C67.3503 211.822 67.2842 211.601 67.2432 211.337C66.7646 211.87 66.1426 212.137 65.377 212.137C64.6523 212.137 64.0508 211.927 63.5723 211.508C63.0983 211.089 62.8613 210.56 62.8613 209.922C62.8613 209.138 63.1507 208.536 63.7295 208.117C64.3128 207.698 65.1536 207.486 66.252 207.481H67.1611V207.058C67.1611 206.716 67.0723 206.442 66.8945 206.237C66.7214 206.032 66.4456 205.93 66.0674 205.93C65.7347 205.93 65.4727 206.009 65.2812 206.169C65.0944 206.328 65.001 206.547 65.001 206.825H63.0254C63.0254 206.397 63.1576 206 63.4219 205.636C63.6862 205.271 64.0599 204.986 64.543 204.781C65.026 204.572 65.5684 204.467 66.1699 204.467C67.0814 204.467 67.8037 204.697 68.3369 205.157C68.8747 205.613 69.1436 206.256 69.1436 207.085V210.291C69.1481 210.993 69.2461 211.524 69.4375 211.884V212H67.4414ZM65.8076 210.626C66.0993 210.626 66.3682 210.562 66.6143 210.435C66.8604 210.302 67.0426 210.127 67.1611 209.908V208.637H66.4229C65.4339 208.637 64.9076 208.979 64.8438 209.662L64.8369 209.778C64.8369 210.024 64.9235 210.227 65.0967 210.387C65.2699 210.546 65.5068 210.626 65.8076 210.626ZM77.3262 208.37C77.3262 209.555 77.0732 210.48 76.5674 211.146C76.0615 211.806 75.3551 212.137 74.4482 212.137C73.6462 212.137 73.0059 211.829 72.5273 211.214L72.4385 212H70.6611V201.5H72.6367V205.267C73.0924 204.733 73.6917 204.467 74.4346 204.467C75.3369 204.467 76.0433 204.799 76.5537 205.465C77.0687 206.126 77.3262 207.058 77.3262 208.261V208.37ZM75.3506 208.227C75.3506 207.479 75.2321 206.935 74.9951 206.593C74.7581 206.246 74.4049 206.073 73.9355 206.073C73.3066 206.073 72.8737 206.331 72.6367 206.846V209.765C72.8783 210.284 73.3158 210.544 73.9492 210.544C74.5872 210.544 75.0065 210.229 75.207 209.601C75.3027 209.3 75.3506 208.842 75.3506 208.227ZM80.6348 212H78.6523V201.5H80.6348V212ZM85.6729 212.137C84.5882 212.137 83.7041 211.804 83.0205 211.139C82.3415 210.473 82.002 209.587 82.002 208.479V208.288C82.002 207.545 82.1455 206.882 82.4326 206.299C82.7197 205.711 83.1253 205.26 83.6494 204.945C84.1781 204.626 84.7796 204.467 85.4541 204.467C86.4658 204.467 87.2611 204.786 87.8398 205.424C88.4232 206.062 88.7148 206.966 88.7148 208.138V208.944H84.0049C84.0687 209.427 84.2601 209.815 84.5791 210.106C84.9027 210.398 85.3105 210.544 85.8027 210.544C86.5638 210.544 87.1585 210.268 87.5869 209.717L88.5576 210.804C88.2614 211.223 87.8604 211.551 87.3545 211.788C86.8486 212.021 86.2881 212.137 85.6729 212.137ZM85.4473 206.066C85.0553 206.066 84.7363 206.199 84.4902 206.463C84.2487 206.727 84.0938 207.105 84.0254 207.598H86.7734V207.44C86.7643 207.003 86.6458 206.666 86.418 206.429C86.1901 206.187 85.8665 206.066 85.4473 206.066ZM97.4854 206.456C97.2165 206.42 96.9795 206.401 96.7744 206.401C96.027 206.401 95.5371 206.654 95.3047 207.16V212H93.3291V204.604H95.1953L95.25 205.485C95.6465 204.806 96.1956 204.467 96.8975 204.467C97.1162 204.467 97.3213 204.496 97.5127 204.556L97.4854 206.456ZM101.71 212.137C100.625 212.137 99.7412 211.804 99.0576 211.139C98.3786 210.473 98.0391 209.587 98.0391 208.479V208.288C98.0391 207.545 98.1826 206.882 98.4697 206.299C98.7568 205.711 99.1624 205.26 99.6865 204.945C100.215 204.626 100.817 204.467 101.491 204.467C102.503 204.467 103.298 204.786 103.877 205.424C104.46 206.062 104.752 206.966 104.752 208.138V208.944H100.042C100.106 209.427 100.297 209.815 100.616 210.106C100.94 210.398 101.348 210.544 101.84 210.544C102.601 210.544 103.196 210.268 103.624 209.717L104.595 210.804C104.299 211.223 103.897 211.551 103.392 211.788C102.886 212.021 102.325 212.137 101.71 212.137ZM101.484 206.066C101.092 206.066 100.773 206.199 100.527 206.463C100.286 206.727 100.131 207.105 100.062 207.598H102.811V207.44C102.801 207.003 102.683 206.666 102.455 206.429C102.227 206.187 101.904 206.066 101.484 206.066ZM112.538 208.37C112.538 209.509 112.278 210.423 111.759 211.111C111.244 211.795 110.547 212.137 109.667 212.137C108.92 212.137 108.316 211.877 107.855 211.357V214.844H105.88V204.604H107.712L107.78 205.328C108.259 204.754 108.883 204.467 109.653 204.467C110.565 204.467 111.273 204.804 111.779 205.479C112.285 206.153 112.538 207.083 112.538 208.268V208.37ZM110.562 208.227C110.562 207.538 110.439 207.007 110.193 206.634C109.952 206.26 109.599 206.073 109.134 206.073C108.514 206.073 108.088 206.31 107.855 206.784V209.812C108.097 210.3 108.528 210.544 109.147 210.544C110.091 210.544 110.562 209.771 110.562 208.227ZM113.461 208.233C113.461 207.5 113.602 206.846 113.885 206.271C114.167 205.697 114.573 205.253 115.102 204.938C115.635 204.624 116.252 204.467 116.954 204.467C117.952 204.467 118.766 204.772 119.395 205.383C120.028 205.993 120.381 206.823 120.454 207.871L120.468 208.377C120.468 209.512 120.151 210.423 119.518 211.111C118.884 211.795 118.034 212.137 116.968 212.137C115.901 212.137 115.049 211.795 114.411 211.111C113.778 210.428 113.461 209.498 113.461 208.322V208.233ZM115.437 208.377C115.437 209.079 115.569 209.617 115.833 209.99C116.097 210.359 116.476 210.544 116.968 210.544C117.446 210.544 117.82 210.362 118.089 209.997C118.358 209.628 118.492 209.04 118.492 208.233C118.492 207.545 118.358 207.012 118.089 206.634C117.82 206.256 117.442 206.066 116.954 206.066C116.471 206.066 116.097 206.256 115.833 206.634C115.569 207.007 115.437 207.589 115.437 208.377ZM125.69 209.956C125.69 209.715 125.57 209.525 125.328 209.389C125.091 209.247 124.708 209.122 124.18 209.013C122.421 208.644 121.541 207.896 121.541 206.771C121.541 206.114 121.812 205.567 122.354 205.13C122.901 204.688 123.615 204.467 124.494 204.467C125.433 204.467 126.183 204.688 126.743 205.13C127.308 205.572 127.591 206.146 127.591 206.853H125.615C125.615 206.57 125.524 206.338 125.342 206.155C125.16 205.968 124.875 205.875 124.487 205.875C124.155 205.875 123.897 205.95 123.715 206.101C123.533 206.251 123.441 206.442 123.441 206.675C123.441 206.894 123.544 207.071 123.749 207.208C123.959 207.34 124.31 207.456 124.802 207.557C125.294 207.652 125.709 207.762 126.046 207.885C127.09 208.268 127.611 208.931 127.611 209.874C127.611 210.549 127.322 211.095 126.743 211.515C126.164 211.929 125.417 212.137 124.501 212.137C123.881 212.137 123.33 212.027 122.847 211.809C122.368 211.585 121.992 211.282 121.719 210.899C121.445 210.512 121.309 210.095 121.309 209.648H123.182C123.2 209.999 123.33 210.268 123.571 210.455C123.813 210.642 124.136 210.735 124.542 210.735C124.92 210.735 125.205 210.665 125.396 210.523C125.592 210.378 125.69 210.188 125.69 209.956ZM130.975 212H128.992V204.604H130.975V212ZM128.876 202.689C128.876 202.393 128.974 202.149 129.17 201.958C129.37 201.767 129.642 201.671 129.983 201.671C130.321 201.671 130.59 201.767 130.79 201.958C130.991 202.149 131.091 202.393 131.091 202.689C131.091 202.99 130.988 203.236 130.783 203.428C130.583 203.619 130.316 203.715 129.983 203.715C129.651 203.715 129.382 203.619 129.177 203.428C128.976 203.236 128.876 202.99 128.876 202.689ZM134.974 202.785V204.604H136.238V206.053H134.974V209.744C134.974 210.018 135.026 210.214 135.131 210.332C135.236 210.451 135.436 210.51 135.732 210.51C135.951 210.51 136.145 210.494 136.313 210.462V211.959C135.926 212.077 135.527 212.137 135.117 212.137C133.732 212.137 133.025 211.437 132.998 210.038V206.053H131.918V204.604H132.998V202.785H134.974ZM136.826 208.233C136.826 207.5 136.967 206.846 137.25 206.271C137.533 205.697 137.938 205.253 138.467 204.938C139 204.624 139.618 204.467 140.319 204.467C141.317 204.467 142.131 204.772 142.76 205.383C143.393 205.993 143.746 206.823 143.819 207.871L143.833 208.377C143.833 209.512 143.516 210.423 142.883 211.111C142.249 211.795 141.399 212.137 140.333 212.137C139.267 212.137 138.414 211.795 137.776 211.111C137.143 210.428 136.826 209.498 136.826 208.322V208.233ZM138.802 208.377C138.802 209.079 138.934 209.617 139.198 209.99C139.463 210.359 139.841 210.544 140.333 210.544C140.812 210.544 141.185 210.362 141.454 209.997C141.723 209.628 141.857 209.04 141.857 208.233C141.857 207.545 141.723 207.012 141.454 206.634C141.185 206.256 140.807 206.066 140.319 206.066C139.836 206.066 139.463 206.256 139.198 206.634C138.934 207.007 138.802 207.589 138.802 208.377ZM149.206 206.456C148.937 206.42 148.7 206.401 148.495 206.401C147.748 206.401 147.258 206.654 147.025 207.16V212H145.05V204.604H146.916L146.971 205.485C147.367 204.806 147.916 204.467 148.618 204.467C148.837 204.467 149.042 204.496 149.233 204.556L149.206 206.456ZM153.048 209.204L154.415 204.604H156.534L153.561 213.148L153.396 213.538C152.954 214.504 152.225 214.987 151.209 214.987C150.922 214.987 150.63 214.944 150.334 214.857V213.36L150.635 213.367C151.008 213.367 151.286 213.31 151.469 213.196C151.656 213.082 151.801 212.893 151.906 212.629L152.139 212.021L149.548 204.604H151.674L153.048 209.204ZM20.4512 224.233C20.4512 223.5 20.5924 222.846 20.875 222.271C21.1576 221.697 21.5632 221.253 22.0918 220.938C22.625 220.624 23.2425 220.467 23.9443 220.467C24.9424 220.467 25.7559 220.772 26.3848 221.383C27.0182 221.993 27.3714 222.823 27.4443 223.871L27.458 224.377C27.458 225.512 27.1413 226.423 26.5078 227.111C25.8743 227.795 25.0244 228.137 23.958 228.137C22.8916 228.137 22.0394 227.795 21.4014 227.111C20.7679 226.428 20.4512 225.498 20.4512 224.322V224.233ZM22.4268 224.377C22.4268 225.079 22.5589 225.617 22.8232 225.99C23.0876 226.359 23.4658 226.544 23.958 226.544C24.4365 226.544 24.8102 226.362 25.0791 225.997C25.348 225.628 25.4824 225.04 25.4824 224.233C25.4824 223.545 25.348 223.012 25.0791 222.634C24.8102 222.256 24.432 222.066 23.9443 222.066C23.4613 222.066 23.0876 222.256 22.8232 222.634C22.5589 223.007 22.4268 223.589 22.4268 224.377ZM29.2148 228V222.053H28.1143V220.604H29.2148V219.975C29.2148 219.145 29.4518 218.503 29.9258 218.047C30.4043 217.587 31.0719 217.356 31.9287 217.356C32.2021 217.356 32.5371 217.402 32.9336 217.493L32.9131 219.024C32.749 218.983 32.5485 218.963 32.3115 218.963C31.5687 218.963 31.1973 219.312 31.1973 220.009V220.604H32.667V222.053H31.1973V228H29.2148ZM42.4697 225.389C42.4697 225.001 42.333 224.705 42.0596 224.5C41.7861 224.29 41.2939 224.072 40.583 223.844C39.8721 223.611 39.3092 223.383 38.8945 223.16C37.7643 222.549 37.1992 221.727 37.1992 220.692C37.1992 220.155 37.3496 219.676 37.6504 219.257C37.9557 218.833 38.391 218.503 38.9561 218.266C39.5257 218.029 40.1637 217.91 40.8701 217.91C41.5811 217.91 42.2145 218.04 42.7705 218.3C43.3265 218.555 43.7572 218.917 44.0625 219.387C44.3724 219.856 44.5273 220.389 44.5273 220.986H42.4766C42.4766 220.531 42.333 220.177 42.0459 219.927C41.7588 219.672 41.3555 219.544 40.8359 219.544C40.3346 219.544 39.945 219.651 39.667 219.865C39.389 220.075 39.25 220.353 39.25 220.699C39.25 221.023 39.4118 221.294 39.7354 221.513C40.0635 221.731 40.5443 221.937 41.1777 222.128C42.3444 222.479 43.1943 222.914 43.7275 223.434C44.2607 223.953 44.5273 224.6 44.5273 225.375C44.5273 226.236 44.2015 226.913 43.5498 227.405C42.8981 227.893 42.0208 228.137 40.918 228.137C40.1523 228.137 39.4551 227.998 38.8262 227.72C38.1973 227.437 37.7165 227.052 37.3838 226.564C37.0557 226.077 36.8916 225.512 36.8916 224.869H38.9492C38.9492 225.967 39.6055 226.517 40.918 226.517C41.4056 226.517 41.7861 226.419 42.0596 226.223C42.333 226.022 42.4697 225.744 42.4697 225.389ZM49.9482 222.456C49.6794 222.42 49.4424 222.401 49.2373 222.401C48.4899 222.401 48 222.654 47.7676 223.16V228H45.792V220.604H47.6582L47.7129 221.485C48.1094 220.806 48.6585 220.467 49.3604 220.467C49.5791 220.467 49.7842 220.496 49.9756 220.556L49.9482 222.456ZM52.9902 228H51.0078V220.604H52.9902V228ZM50.8916 218.689C50.8916 218.393 50.9896 218.149 51.1855 217.958C51.3861 217.767 51.6572 217.671 51.999 217.671C52.3363 217.671 52.6051 217.767 52.8057 217.958C53.0062 218.149 53.1064 218.393 53.1064 218.689C53.1064 218.99 53.0039 219.236 52.7988 219.428C52.5983 219.619 52.3317 219.715 51.999 219.715C51.6663 219.715 51.3975 219.619 51.1924 219.428C50.9919 219.236 50.8916 218.99 50.8916 218.689ZM58.6299 225.956C58.6299 225.715 58.5091 225.525 58.2676 225.389C58.0306 225.247 57.6478 225.122 57.1191 225.013C55.36 224.644 54.4805 223.896 54.4805 222.771C54.4805 222.114 54.7516 221.567 55.2939 221.13C55.8408 220.688 56.554 220.467 57.4336 220.467C58.3724 220.467 59.1221 220.688 59.6826 221.13C60.2477 221.572 60.5303 222.146 60.5303 222.853H58.5547C58.5547 222.57 58.4635 222.338 58.2812 222.155C58.099 221.968 57.8141 221.875 57.4268 221.875C57.0941 221.875 56.8366 221.95 56.6543 222.101C56.472 222.251 56.3809 222.442 56.3809 222.675C56.3809 222.894 56.4834 223.071 56.6885 223.208C56.8981 223.34 57.249 223.456 57.7412 223.557C58.2334 223.652 58.6481 223.762 58.9854 223.885C60.029 224.268 60.5508 224.931 60.5508 225.874C60.5508 226.549 60.2614 227.095 59.6826 227.515C59.1038 227.929 58.3564 228.137 57.4404 228.137C56.8206 228.137 56.2692 228.027 55.7861 227.809C55.3076 227.585 54.9316 227.282 54.6582 226.899C54.3848 226.512 54.248 226.095 54.248 225.648H56.1211C56.1393 225.999 56.2692 226.268 56.5107 226.455C56.7523 226.642 57.0758 226.735 57.4814 226.735C57.8597 226.735 58.1445 226.665 58.3359 226.523C58.5319 226.378 58.6299 226.188 58.6299 225.956ZM63.7568 221.41C64.2809 220.781 64.9395 220.467 65.7324 220.467C67.3366 220.467 68.1501 221.399 68.1729 223.263V228H66.1973V223.317C66.1973 222.894 66.1061 222.581 65.9238 222.381C65.7415 222.176 65.4385 222.073 65.0146 222.073C64.4359 222.073 64.0166 222.297 63.7568 222.743V228H61.7812V217.5H63.7568V221.41ZM72.0283 218.785V220.604H73.293V222.053H72.0283V225.744C72.0283 226.018 72.0807 226.214 72.1855 226.332C72.2904 226.451 72.4909 226.51 72.7871 226.51C73.0059 226.51 73.1995 226.494 73.3682 226.462V227.959C72.9808 228.077 72.582 228.137 72.1719 228.137C70.7865 228.137 70.0801 227.437 70.0527 226.038V222.053H68.9727V220.604H70.0527V218.785H72.0283ZM76.4785 228H74.4961V220.604H76.4785V228ZM74.3799 218.689C74.3799 218.393 74.4779 218.149 74.6738 217.958C74.8743 217.767 75.1455 217.671 75.4873 217.671C75.8245 217.671 76.0934 217.767 76.2939 217.958C76.4945 218.149 76.5947 218.393 76.5947 218.689C76.5947 218.99 76.4922 219.236 76.2871 219.428C76.0866 219.619 75.82 219.715 75.4873 219.715C75.1546 219.715 74.8857 219.619 74.6807 219.428C74.4801 219.236 74.3799 218.99 74.3799 218.689ZM88.2568 224.37C88.2568 225.509 87.9971 226.423 87.4775 227.111C86.9626 227.795 86.2653 228.137 85.3857 228.137C84.6383 228.137 84.0345 227.877 83.5742 227.357V230.844H81.5986V220.604H83.4307L83.499 221.328C83.9775 220.754 84.6019 220.467 85.3721 220.467C86.2835 220.467 86.9922 220.804 87.498 221.479C88.0039 222.153 88.2568 223.083 88.2568 224.268V224.37ZM86.2812 224.227C86.2812 223.538 86.1582 223.007 85.9121 222.634C85.6706 222.26 85.3174 222.073 84.8525 222.073C84.2327 222.073 83.8066 222.31 83.5742 222.784V225.812C83.8158 226.3 84.2464 226.544 84.8662 226.544C85.8096 226.544 86.2812 225.771 86.2812 224.227ZM93.6436 222.456C93.3747 222.42 93.1377 222.401 92.9326 222.401C92.1852 222.401 91.6953 222.654 91.4629 223.16V228H89.4873V220.604H91.3535L91.4082 221.485C91.8047 220.806 92.3538 220.467 93.0557 220.467C93.2744 220.467 93.4795 220.496 93.6709 220.556L93.6436 222.456ZM94.0469 224.233C94.0469 223.5 94.1882 222.846 94.4707 222.271C94.7533 221.697 95.1589 221.253 95.6875 220.938C96.2207 220.624 96.8382 220.467 97.54 220.467C98.5381 220.467 99.3516 220.772 99.9805 221.383C100.614 221.993 100.967 222.823 101.04 223.871L101.054 224.377C101.054 225.512 100.737 226.423 100.104 227.111C99.4701 227.795 98.6201 228.137 97.5537 228.137C96.4873 228.137 95.6351 227.795 94.9971 227.111C94.3636 226.428 94.0469 225.498 94.0469 224.322V224.233ZM96.0225 224.377C96.0225 225.079 96.1546 225.617 96.4189 225.99C96.6833 226.359 97.0615 226.544 97.5537 226.544C98.0322 226.544 98.4059 226.362 98.6748 225.997C98.9437 225.628 99.0781 225.04 99.0781 224.233C99.0781 223.545 98.9437 223.012 98.6748 222.634C98.4059 222.256 98.0277 222.066 97.54 222.066C97.057 222.066 96.6833 222.256 96.4189 222.634C96.1546 223.007 96.0225 223.589 96.0225 224.377ZM104.362 220.604V228.403C104.362 229.219 104.146 229.853 103.713 230.304C103.28 230.759 102.656 230.987 101.84 230.987C101.498 230.987 101.172 230.949 100.862 230.871V229.306C101.099 229.347 101.307 229.367 101.484 229.367C102.081 229.367 102.38 229.05 102.38 228.417V220.604H104.362ZM102.223 218.689C102.223 218.393 102.321 218.149 102.517 217.958C102.717 217.767 102.988 217.671 103.33 217.671C103.672 217.671 103.941 217.767 104.137 217.958C104.337 218.149 104.438 218.393 104.438 218.689C104.438 218.99 104.335 219.236 104.13 219.428C103.929 219.619 103.663 219.715 103.33 219.715C102.997 219.715 102.729 219.619 102.523 219.428C102.323 219.236 102.223 218.99 102.223 218.689ZM109.312 228.137C108.227 228.137 107.343 227.804 106.659 227.139C105.98 226.473 105.641 225.587 105.641 224.479V224.288C105.641 223.545 105.784 222.882 106.071 222.299C106.358 221.711 106.764 221.26 107.288 220.945C107.817 220.626 108.418 220.467 109.093 220.467C110.104 220.467 110.9 220.786 111.479 221.424C112.062 222.062 112.354 222.966 112.354 224.138V224.944H107.644C107.707 225.427 107.899 225.815 108.218 226.106C108.541 226.398 108.949 226.544 109.441 226.544C110.202 226.544 110.797 226.268 111.226 225.717L112.196 226.804C111.9 227.223 111.499 227.551 110.993 227.788C110.487 228.021 109.927 228.137 109.312 228.137ZM109.086 222.066C108.694 222.066 108.375 222.199 108.129 222.463C107.887 222.727 107.732 223.105 107.664 223.598H110.412V223.44C110.403 223.003 110.285 222.666 110.057 222.429C109.829 222.187 109.505 222.066 109.086 222.066ZM116.558 226.544C116.922 226.544 117.218 226.444 117.446 226.243C117.674 226.043 117.793 225.776 117.802 225.443H119.654C119.65 225.945 119.513 226.405 119.244 226.824C118.975 227.239 118.606 227.562 118.137 227.795C117.672 228.023 117.157 228.137 116.592 228.137C115.535 228.137 114.701 227.802 114.09 227.132C113.479 226.457 113.174 225.528 113.174 224.343V224.213C113.174 223.074 113.477 222.164 114.083 221.485C114.689 220.806 115.521 220.467 116.578 220.467C117.503 220.467 118.244 220.731 118.8 221.26C119.36 221.784 119.645 222.483 119.654 223.358H117.802C117.793 222.976 117.674 222.666 117.446 222.429C117.218 222.187 116.918 222.066 116.544 222.066C116.084 222.066 115.735 222.235 115.498 222.572C115.266 222.905 115.149 223.447 115.149 224.199V224.404C115.149 225.165 115.266 225.712 115.498 226.045C115.73 226.378 116.084 226.544 116.558 226.544ZM123.147 218.785V220.604H124.412V222.053H123.147V225.744C123.147 226.018 123.2 226.214 123.305 226.332C123.41 226.451 123.61 226.51 123.906 226.51C124.125 226.51 124.319 226.494 124.487 226.462V227.959C124.1 228.077 123.701 228.137 123.291 228.137C121.906 228.137 121.199 227.437 121.172 226.038V222.053H120.092V220.604H121.172V218.785H123.147ZM129.519 225.956C129.519 225.715 129.398 225.525 129.156 225.389C128.919 225.247 128.536 225.122 128.008 225.013C126.249 224.644 125.369 223.896 125.369 222.771C125.369 222.114 125.64 221.567 126.183 221.13C126.729 220.688 127.443 220.467 128.322 220.467C129.261 220.467 130.011 220.688 130.571 221.13C131.136 221.572 131.419 222.146 131.419 222.853H129.443C129.443 222.57 129.352 222.338 129.17 222.155C128.988 221.968 128.703 221.875 128.315 221.875C127.983 221.875 127.725 221.95 127.543 222.101C127.361 222.251 127.27 222.442 127.27 222.675C127.27 222.894 127.372 223.071 127.577 223.208C127.787 223.34 128.138 223.456 128.63 223.557C129.122 223.652 129.537 223.762 129.874 223.885C130.918 224.268 131.439 224.931 131.439 225.874C131.439 226.549 131.15 227.095 130.571 227.515C129.993 227.929 129.245 228.137 128.329 228.137C127.709 228.137 127.158 228.027 126.675 227.809C126.196 227.585 125.82 227.282 125.547 226.899C125.273 226.512 125.137 226.095 125.137 225.648H127.01C127.028 225.999 127.158 226.268 127.399 226.455C127.641 226.642 127.965 226.735 128.37 226.735C128.748 226.735 129.033 226.665 129.225 226.523C129.421 226.378 129.519 226.188 129.519 225.956ZM135.445 218.047H137.462L141.618 228.854H139.595L135.445 218.047ZM142.213 227.029C142.213 226.715 142.318 226.46 142.527 226.264C142.742 226.068 143.008 225.97 143.327 225.97C143.651 225.97 143.917 226.068 144.127 226.264C144.341 226.46 144.448 226.715 144.448 227.029C144.448 227.339 144.343 227.592 144.134 227.788C143.924 227.979 143.655 228.075 143.327 228.075C143.004 228.075 142.737 227.979 142.527 227.788C142.318 227.592 142.213 227.339 142.213 227.029ZM146.287 227.029C146.287 226.715 146.392 226.46 146.602 226.264C146.816 226.068 147.082 225.97 147.401 225.97C147.725 225.97 147.992 226.068 148.201 226.264C148.415 226.46 148.522 226.715 148.522 227.029C148.522 227.339 148.418 227.592 148.208 227.788C147.998 227.979 147.729 228.075 147.401 228.075C147.078 228.075 146.811 227.979 146.602 227.788C146.392 227.592 146.287 227.339 146.287 227.029ZM150.361 227.029C150.361 226.715 150.466 226.46 150.676 226.264C150.89 226.068 151.157 225.97 151.476 225.97C151.799 225.97 152.066 226.068 152.275 226.264C152.49 226.46 152.597 226.715 152.597 227.029C152.597 227.339 152.492 227.592 152.282 227.788C152.073 227.979 151.804 228.075 151.476 228.075C151.152 228.075 150.885 227.979 150.676 227.788C150.466 227.592 150.361 227.339 150.361 227.029Z" fill="black"/>
<path d="M527.955 121.447C522.279 120.941 517.373 119.505 510.319 116.288C498.4 110.866 488.914 101.844 483.117 90.4338C476.367 77.1627 475.171 62.5363 479.691 48.5571C483.157 37.7744 490.009 27.6188 498.279 21.0238C502.698 17.4835 508.394 14.2871 513.563 12.4057C520.049 10.0792 528.765 8.72377 535.292 9.04745C550.292 9.8162 562.515 15.1368 572.894 25.4542C579.299 31.8065 583.759 38.6039 586.475 46.0688C588.198 50.8634 588.948 54.3835 589.434 59.9266C589.738 63.5275 589.556 72.0647 589.11 75.2611C587.61 86.0843 580.86 98.1415 571.617 106.537C562.536 114.791 551.752 119.707 539.63 121.143C536.387 121.528 530.549 121.69 527.955 121.447V121.447ZM536.387 118.878C536.468 118.675 536.61 117.259 536.711 115.681C536.833 113.779 537.015 112.485 537.279 111.736C538.718 107.65 541.759 104.19 548.772 98.627C556.86 92.1938 559.373 90.1101 563.144 86.59C568.049 82.018 571.191 78.1338 573.279 74.108C575.265 70.2844 575.792 68.4637 576.036 64.9437C576.563 56.629 575.022 50.9848 571.11 46.8578C567.542 43.1152 561.542 40.283 557.083 40.2425L555.461 40.2223L555.522 40.809C555.664 42.0025 556.576 43.2568 557.184 43.0545C557.569 42.9331 557.792 43.4187 557.792 44.3897C557.792 45.9272 560.853 50.5195 562.86 52.0165C565.759 54.1609 566.833 55.5366 567.786 58.3081C568.88 61.4843 568.738 65.4899 567.38 69.455C565.799 74.0675 562.434 78.7407 558.948 81.1481C554.772 84.041 548.245 86.2461 541.171 87.1767C537.563 87.642 532.536 87.4802 529.617 86.7923C525.238 85.7404 521.063 83.9196 515.428 80.5614C509.671 77.1425 506.387 75.8073 505.718 76.6165C505.313 77.102 505.84 77.7494 507.279 78.5182C508.86 79.3678 510.664 81.3099 512.691 84.3242C514.637 87.2576 516.238 88.9367 517.434 89.3009C518.205 89.5234 518.428 89.5032 519.948 88.9974C521.428 88.5119 521.752 88.4714 522.461 88.6535C523.434 88.9165 523.921 89.3616 523.414 89.5639C523.252 89.6246 522.623 89.6853 522.036 89.6853C520.536 89.6853 519.34 90.3529 518.711 91.5262C517.759 93.2863 518.387 95.7139 520.414 98.2427C521.671 99.8004 521.914 99.7397 523.333 97.6358C525.259 94.7833 526.556 93.7515 528.259 93.7313C530.306 93.7313 532.637 95.8757 532.657 97.7976C532.657 99.2339 530.529 101.844 528.623 102.693C527.894 103.017 527.468 103.057 526.434 102.977C525.461 102.875 525.096 102.916 524.853 103.159C524.691 103.341 524.549 103.563 524.549 103.664C524.549 104.13 526.069 105.465 527.225 105.991C528.319 106.476 528.765 106.557 530.265 106.578C531.928 106.578 532.069 106.537 532.941 105.93C533.955 105.202 534.279 105.121 534.279 105.526C534.279 105.93 533.711 106.658 532.15 108.297C529.738 110.806 529.596 111.493 530.955 114.285C532.434 117.32 535.88 120.213 536.387 118.878V118.878ZM525.765 117.927C525.765 117.158 522.4 112.647 520.252 110.502C518.914 109.187 517.515 108.52 515.691 108.358C513.786 108.196 513.725 108.135 513.867 106.173C514.069 103.604 513.4 102.552 510.765 101.338C509.65 100.812 508.069 100.63 507.826 101.014C507.765 101.115 508.171 102.086 508.738 103.179C509.569 104.716 509.752 105.283 509.671 105.748C509.488 106.598 508.678 107.569 507.826 107.994C505.09 109.268 502.292 105.04 502.252 99.5981C502.232 95.7341 501.583 93.266 500.225 91.8904C498.887 90.4742 497.509 90.3124 496.9 91.4655C496.718 91.769 496.596 91.8904 496.576 91.7488C496.576 91.6071 500.225 84.2838 504.664 75.4634C514.799 55.395 515.529 53.7563 514.779 52.6234C514.495 52.1784 512.488 51.0455 512.002 51.0455C511.13 51.0455 502.86 65.6315 496.434 78.4979C494.934 81.5122 493.515 84.1624 493.292 84.3445C492.745 84.8502 492.38 84.567 491.488 82.989C490.617 81.4515 489.36 80.3996 486.806 79.0441C483.988 77.5471 482.569 75.6455 482.245 72.8942C482.022 71.0127 483.218 68.8481 484.495 68.8481C485.225 68.8481 485.144 69.0504 484.191 69.718C483.745 70.0215 483.319 70.4261 483.259 70.6081C482.955 71.3971 484.536 72.8942 485.671 72.8942C486.846 72.8942 488.063 71.8826 488.367 70.6081C488.995 68.1805 485.792 65.6719 483.299 66.6228C482.468 66.9465 480.664 68.8886 480.056 70.1631C479.529 71.215 479.509 71.4173 479.61 72.9548C479.772 75.1397 480.38 77.2032 481.556 79.6713C482.833 82.3417 484.414 84.3242 486.178 85.4976C486.948 85.9831 487.698 86.5496 487.86 86.7519C488.123 87.0756 488.123 87.1363 487.759 87.3386C486.968 87.7836 486.238 88.6535 486.238 89.139C486.238 91.3441 488.022 95.3497 488.995 95.3497C489.218 95.3497 489.725 94.2573 490.171 92.8007C490.434 91.9511 491.002 91.6476 492.117 91.7488C494.245 91.9511 495.076 93.8527 494.002 96.0578C493.84 96.4017 493.13 97.1705 492.461 97.8178C491.387 98.7889 491.245 99.0114 491.428 99.3351C491.833 100.003 493.353 100.691 494.448 100.691C495.745 100.691 496.455 100.225 496.9 99.0721C497.286 98.0808 497.792 97.656 498.157 98.0201C498.502 98.364 498.461 98.6675 497.792 100.347C497.448 101.176 497.184 102.147 497.184 102.491C497.184 104.049 499.353 107.063 501.806 108.884C505.414 111.595 511.759 113.941 515.529 113.962C517.637 113.962 517.819 113.597 516.502 112.06C516.036 111.493 515.894 111.19 516.036 111.048C516.563 110.522 517.9 112.282 518.873 114.831C519.603 116.713 519.846 117.037 520.84 117.522C521.61 117.866 523.982 118.372 525.117 118.392C525.664 118.412 525.765 118.352 525.765 117.927V117.927ZM547.252 118.21C547.475 118.068 547.495 117.947 547.353 117.745C546.38 116.389 546.34 116.288 546.34 115.054C546.34 114.002 546.421 113.699 546.826 113.274C547.394 112.667 547.759 112.586 547.556 113.112C547.15 114.103 547.171 114.164 547.982 114.164C549.076 114.164 554.711 113.436 556.657 113.031C560.691 112.222 563.853 110.725 565.921 108.702C568.069 106.578 568.941 104.372 568.941 100.994C568.941 98.445 569.063 98.364 571.11 99.5981C572.022 100.144 572.691 100.407 573.198 100.407C574.9 100.407 578.063 98.0606 578.063 96.8063C578.063 96.078 577.637 95.815 575.792 95.3497C574.394 94.9856 573.563 94.0348 573.441 92.6793C573.38 91.7892 573.441 91.4858 573.846 90.9193C574.556 89.8673 575.225 89.483 576.705 89.22C577.961 89.0177 578.103 89.0379 578.61 89.402C578.975 89.665 579.319 90.2315 579.522 90.8788C579.948 92.1938 580.211 92.5175 580.819 92.5175C581.813 92.5175 583.13 89.5437 583.13 87.2981V86.145L581.691 84.7693C580.11 83.252 580.09 83.0093 581.569 83.0093C583.88 83.0093 586.353 79.9343 587.691 75.4229C588.319 73.2988 588.461 70.3451 588.015 68.8279C587.468 66.9262 585.765 65.6113 583.86 65.6113C581.306 65.6113 580.049 67.8164 581.509 69.8191C582.279 70.8914 582.826 71.033 584.042 70.4868C585.319 69.9203 585.765 69.9405 585.765 70.5272C585.765 71.6803 583.718 73.582 580.232 75.6252C577.657 77.102 577.414 77.5067 577.576 79.5904C577.677 80.6828 577.637 81.1683 577.475 81.2695C577.049 81.5325 576.684 81.0065 576.563 79.8938C576.36 78.417 575.367 76.3333 574.84 76.3333C574.333 76.3333 572.853 77.9922 570.786 80.8649C568.272 84.3849 567.867 85.1132 567.867 86.1247C567.867 87.2172 568.414 88.1478 570.117 89.928C570.948 90.7979 571.394 91.4048 571.333 91.6476C571.252 92.1331 570.684 92.1129 570.603 91.6071C570.441 90.8384 570.117 90.6563 569.083 90.7575C567.725 90.8788 566.569 91.7285 565.88 93.0839C565.292 94.2573 564.603 97.1502 564.279 99.8004C563.63 104.817 562.434 107.488 560.306 108.499C558.076 109.592 555.867 108.317 555.441 105.708C555.259 104.595 555.887 103.24 556.86 102.653C557.265 102.39 557.59 102.107 557.59 102.005C557.59 101.702 556.617 101.56 555.34 101.682C551.873 101.985 549.319 105.869 550.678 108.803C550.88 109.248 551.184 109.733 551.367 109.895C551.894 110.32 551.813 110.806 551.265 110.644C551.002 110.563 550.049 110.462 549.137 110.381C547.617 110.28 547.414 110.3 546.583 110.785C545.286 111.554 543.015 113.901 542.144 115.378C541.353 116.713 541.171 117.724 541.617 118.169C541.921 118.473 546.786 118.513 547.252 118.21V118.21ZM563.569 75.079C564.745 73.5011 566.063 71.2757 566.569 69.9608C567.36 67.9175 567.056 65.4899 565.556 62.071C563.529 57.4585 550.88 35.63 545.732 27.8818C543.137 23.9572 542.022 22.622 541.232 22.4197C540.421 22.2376 539.752 21.7521 539.752 21.3677C539.752 21.1047 539.934 21.0642 541.13 21.1856C542.873 21.3677 544.596 21.0845 547.495 20.1943C550.799 19.1424 552.38 18.9603 553.86 19.3851C555.765 19.9313 557.184 21.7318 557.184 23.5525C557.184 23.8155 556.961 24.5034 556.698 25.09C556.211 26.1016 555.928 26.3848 553.353 28.246C552.846 28.6101 552.441 28.9945 552.441 29.0956C552.421 29.217 553.029 29.6014 553.779 29.9858C555.826 30.9973 556.637 30.9366 559.536 29.5205C562.11 28.2864 562.009 28.2662 562.333 29.8037C562.617 31.1389 565.738 33.9711 568.211 35.1445C570.4 36.1762 577.009 38.1386 579.846 38.6039C580.596 38.7252 580.698 38.705 580.698 38.3409C580.698 37.8958 579.056 35.3063 577.799 33.7486C576.421 32.0493 574.13 29.8037 573.786 29.8037C573.603 29.8037 573.117 30.2083 572.691 30.7141C571.698 31.9481 570.684 32.4336 569.184 32.4336C568.333 32.4336 567.725 32.292 566.955 31.9076C566.367 31.6244 565.9 31.3007 565.9 31.1996C565.9 30.9568 565.982 30.9568 567.36 31.3412C568.009 31.5233 568.596 31.6244 568.657 31.5637C568.819 31.4019 568.292 30.4308 566.346 27.3761C564.076 23.8155 563.265 22.7636 561.218 20.781C556.556 16.3101 551.428 14.0443 546.461 14.2669C543.806 14.3882 542.752 14.1455 541.333 13.0733C540.015 12.0618 538.759 11.4144 537.421 11.0705C536.083 10.7063 535.556 10.7266 535.414 11.1109C535.353 11.293 535.434 12.4866 535.637 13.7813C535.819 15.0963 535.921 16.391 535.84 16.6743C535.678 17.3419 534.522 17.8476 532.779 18.0095C531.664 18.1106 531.461 18.0701 530.975 17.6453C529.718 16.5326 529.86 13.3565 531.279 11.3537C531.644 10.8479 531.34 10.6861 529.961 10.6861C528.38 10.7063 526.921 11.3537 525.299 12.7698C524.042 13.8825 523.292 14.1455 521.873 13.9432C519.644 13.6397 517.576 13.579 516.38 13.8218C513.907 14.2871 510.259 16.4113 508.9 18.1308C508.049 19.2233 506.975 21.307 506.691 22.3792C506.245 24.2404 507.238 25.7779 509.63 26.8905C510.928 27.4974 511.211 27.4974 512.509 26.8905C514.941 25.7576 515.569 22.9254 513.745 21.3879C513.178 20.9024 512.995 20.8619 511.982 20.9833C511.373 21.044 510.664 21.1654 510.421 21.2261C509.65 21.4284 509.873 20.8822 510.928 19.8504C513.096 17.706 515.245 17.7667 520.069 20.1134C523.718 21.8734 524.245 21.8937 526.191 20.255C527.022 19.5672 527.59 19.284 527.59 19.6076C527.59 19.8302 527.103 20.6192 526.455 21.4081C526.11 21.8532 525.157 23.3502 524.346 24.7461C522.684 27.6391 516.846 39.231 515.853 41.5979C514.921 43.8637 515.144 44.0256 517.576 42.7511L519.117 41.9216L518.488 42.7915C517.698 43.8435 517.698 44.2481 518.448 44.5718C520.029 45.2192 520.576 44.5111 524.59 36.5808C528.319 29.1968 530.367 25.353 530.732 24.9687C530.995 24.7057 531.096 24.7259 531.563 25.171C532.333 25.879 533.448 27.5784 535.313 30.8557C537.015 33.8295 542.752 43.7019 548.995 54.3228C553.921 62.7183 555.036 65.0853 554.346 65.9147C553.982 66.3598 553.617 66.2991 551.387 65.4899C547.657 64.1344 547.15 63.9321 544.333 62.6374C542.772 61.9091 540.928 61.1808 540.238 60.9988C539.083 60.6953 538.961 60.6953 538.455 61.019C537.948 61.3629 537.725 61.9698 538.13 61.9698C538.536 61.9698 538.313 62.4553 537.623 63.0622C536.934 63.6692 536.914 63.7096 537.218 64.1547C538.11 65.3887 542.286 67.5736 546.745 69.1111C549.826 70.1631 552.198 70.7497 555.198 71.1543C557.428 71.478 558.603 71.8422 559.292 72.4491C559.495 72.6312 560.083 73.4404 560.59 74.2091C561.664 75.9085 562.029 76.3333 562.373 76.3333C562.515 76.3333 563.042 75.7668 563.569 75.079V75.079ZM511.272 72.3682C512.61 72.0849 516.015 71.4578 518.853 70.952C525.542 69.7989 526.921 69.7787 530.042 70.7902C531.259 71.1746 532.515 71.478 532.819 71.4376C533.346 71.3769 533.367 71.3364 533.509 69.6573C533.873 64.7211 537.988 58.4497 543.4 54.4644C544.698 53.5136 545.488 52.7853 545.569 52.4818C545.65 52.1379 545.306 51.268 544.353 49.3461C542.792 46.2104 541.759 44.7741 541.09 44.7741C540.644 44.7741 540.623 44.7134 540.725 43.803C540.806 42.8522 540.786 42.7915 540.036 42.1644C538.515 40.9303 534.096 40.0604 532.982 40.7887C532.698 40.9708 531.846 42.0632 531.056 43.1961C528.299 47.222 522.421 53.4529 518.772 56.2244C516.826 57.7215 515.164 59.4613 513.806 61.4641C511.819 64.3974 507.928 71.7208 507.928 72.53C507.928 73.0155 508.333 72.9953 511.272 72.3682V72.3682ZM498.705 71.1543C499.191 70.6688 500.225 68.5244 500.225 67.9984C500.225 67.7152 499.961 67.2904 499.576 66.9667L498.907 66.4002L499.738 66.5216C500.448 66.6228 500.671 66.5621 501.178 66.1372C501.948 65.4899 502.779 63.6692 502.475 63.305C502.333 63.1432 501.421 62.9813 500.002 62.9004C495.4 62.5969 492.563 61.0392 491.184 58.0451C489.786 54.9701 490.84 51.5108 493.88 49.2045C495.664 47.8491 497.164 47.3838 500.123 47.2624C504.34 47.0803 508.09 48.0312 514.15 50.7622C520.069 53.4326 522.198 53.7563 521.205 51.8344C520.86 51.2073 521.042 51.0859 521.732 51.4501C522.036 51.6321 522.218 51.5715 522.623 51.1669C524.265 49.5282 521.569 47.141 515.042 44.4504C512.59 43.4591 511.698 42.6499 511.495 41.254C511.333 39.9998 510.603 38.7455 509.509 37.8149C508.495 36.945 508.272 36.9248 507.786 37.6126C506.448 39.5345 505.394 40.1211 503.265 40.1211C500.063 40.1211 498.218 38.0981 499.759 36.2572C500.428 35.4682 502.333 34.5376 503.65 34.3555C504.846 34.1937 506.144 34.5173 507.036 35.2052C507.867 35.8323 508.13 35.6907 508.13 34.5983C508.13 33.5463 507.421 32.029 506.346 30.7141C505.373 29.5609 504.948 28.4483 504.684 26.4252C504.563 25.5149 504.259 24.5236 503.894 23.7953C503.306 22.6422 501.968 20.9024 501.664 20.9024C501.563 20.9024 501.421 21.6104 501.36 22.5006C501.076 25.6565 499.819 27.3963 493.15 33.8295C485.752 40.9506 483.968 43.5603 483.096 48.5571C482.711 50.742 482.711 52.5627 483.096 54.7071C484.313 61.6259 488.813 67.3106 495.745 70.6486C497.63 71.559 498.198 71.6601 498.705 71.1543V71.1543Z" fill="white"/>
<path d="M557.387 87.4802C557.387 86.4282 558.644 84.2231 559.252 84.2231C559.759 84.2231 559.029 86.4889 558.259 87.2981C557.63 87.9657 557.387 88.0062 557.387 87.4802V87.4802Z" fill="white"/>
<path d="M560.995 84.0815C561.482 83.3937 565.982 78.9632 566.184 78.9632C566.549 78.9632 565.617 80.0961 563.448 82.2608C561.157 84.5063 560.123 85.2751 560.995 84.0815Z" fill="white"/>
<path d="M556.86 61.3022C555.948 60.3514 554.792 58.6723 554.448 57.8429C554.184 57.2157 554.184 57.1146 554.428 57.1146C554.59 57.1146 554.995 57.4585 555.34 57.8833C556.009 58.6723 557.691 61.7473 557.549 61.8889C557.488 61.9294 557.184 61.6664 556.86 61.3022Z" fill="white"/>
<path d="M544.353 40.3032C543.137 38.6848 541.171 35.5491 541.171 35.2052C541.171 34.8613 541.819 35.5289 542.894 36.9854C544.292 38.8669 545.691 41.254 545.59 41.5777C545.529 41.7193 544.982 41.1326 544.353 40.3032Z" fill="white"/>
<path d="M515.732 62.1721C515.59 61.9294 516.34 61.1606 516.745 61.1606C517.272 61.1606 518.711 60.3514 519.765 59.4613C520.556 58.8139 520.698 58.7532 520.495 59.1376C519.563 60.8976 516.259 63.0016 515.732 62.1721Z" fill="white"/>
<path d="M491.813 64.5593C490.475 63.1836 489.096 61.7675 488.772 61.3831C488.184 60.6953 488.184 60.6953 489.279 61.545C492.482 64.0131 495.279 67.0274 494.387 67.0274C494.306 67.0274 493.15 65.9147 491.813 64.5593V64.5593Z" fill="white"/>
<defs>
<filter id="filter0_d" x="0" y="0" width="426" height="131" filterUnits="userSpaceOnUse" color-interpolation-filters="sRGB">
<feFlood flood-opacity="0" result="BackgroundImageFix"/>
<feColorMatrix in="SourceAlpha" type="matrix" values="0 0 0 0 0 0 0 0 0 0 0 0 0 0 0 0 0 0 127 0"/>
<feOffset dx="11" dy="9"/>
<feColorMatrix type="matrix" values="0 0 0 0 1 0 0 0 0 0.425255 0 0 0 0 0.101961 0 0 0 1 0"/>
<feBlend mode="normal" in2="BackgroundImageFix" result="effect1_dropShadow"/>
<feBlend mode="normal" in="SourceGraphic" in2="effect1_dropShadow" result="shape"/>
</filter>
<filter id="filter1_d" x="207" y="143" width="409" height="123" filterUnits="userSpaceOnUse" color-interpolation-filters="sRGB">
<feFlood flood-opacity="0" result="BackgroundImageFix"/>
<feColorMatrix in="SourceAlpha" type="matrix" values="0 0 0 0 0 0 0 0 0 0 0 0 0 0 0 0 0 0 127 0"/>
<feOffset dx="11" dy="11"/>
<feColorMatrix type="matrix" values="0 0 0 0 1 0 0 0 0 0.870588 0 0 0 0 0 0 0 0 1 0"/>
<feBlend mode="normal" in2="BackgroundImageFix" result="effect1_dropShadow"/>
<feBlend mode="normal" in="SourceGraphic" in2="effect1_dropShadow" result="shape"/>
</filter>
</defs>
</svg>
